<svg id="visual" viewBox="0 0 960 540" width="960" height="540" xmlns="http://www.w3.org/2000/svg" xmlns:xlink="http://www.w3.org/1999/xlink" version="1.1"><rect x="0" y="0" width="960" height="540" fill="#001220"></rect><defs><linearGradient id="grad1_0" x1="43.8%" y1="0%" x2="100%" y2="100%"><stop offset="14.444444444444446%" stop-color="#001220" stop-opacity="1"></stop><stop offset="85.55555555555554%" stop-color="#001220" stop-opacity="1"></stop></linearGradient></defs><defs><linearGradient id="grad2_0" x1="0%" y1="0%" x2="56.3%" y2="100%"><stop offset="14.444444444444446%" stop-color="#001220" stop-opacity="1"></stop><stop offset="85.55555555555554%" stop-color="#001220" stop-opacity="1"></stop></linearGradient></defs><g transform="translate(960, 0)"><path d="M0 486C-62 472.7 -124 459.4 -180.2 435.1C-236.4 410.9 -286.8 375.8 -333.8 333.8C-380.7 291.7 -424.2 242.8 -449 186C-473.8 129.2 -479.9 64.6 -486 0L0 0Z" fill="#6600FF"></path></g><g transform="translate(0, 540)"><path d="M0 -486C60.8 -477.6 121.7 -469.2 186 -449C250.3 -428.9 318 -397 342.9 -342.9C367.9 -288.9 350.1 -212.8 366.8 -151.9C383.5 -91.1 434.7 -45.5 486 0L0 0Z" fill="#6600FF"></path></g></svg>